<?xml version="1.0" encoding="UTF-8" standalone="no"?>
<!-- Created with Inkscape (http://www.inkscape.org/) -->

<svg
   width="79.375mm"
   height="17.991667mm"
   viewBox="0 0 79.375 17.991667"
   version="1.1"
   id="svg1"
   inkscape:version="1.3 (1:1.3+202307231459+0e150ed6c4)"
   sodipodi:docname="adriel-filipe-logo.svg"
   xmlns:inkscape="http://www.inkscape.org/namespaces/inkscape"
   xmlns:sodipodi="http://sodipodi.sourceforge.net/DTD/sodipodi-0.dtd"
   xmlns="http://www.w3.org/2000/svg"
   xmlns:svg="http://www.w3.org/2000/svg">
  <sodipodi:namedview
     id="namedview1"
     pagecolor="#ffffff"
     bordercolor="#000000"
     borderopacity="0.25"
     inkscape:showpageshadow="2"
     inkscape:pageopacity="0.0"
     inkscape:pagecheckerboard="0"
     inkscape:deskcolor="#d1d1d1"
     inkscape:document-units="mm"
     inkscape:zoom="1.8101934"
     inkscape:cx="9.391262"
     inkscape:cy="-54.966504"
     inkscape:window-width="2560"
     inkscape:window-height="1032"
     inkscape:window-x="0"
     inkscape:window-y="24"
     inkscape:window-maximized="1"
     inkscape:current-layer="layer1"
     showguides="true" />
  <defs
     id="defs1" />
  <g
     inkscape:label="Camada 1"
     inkscape:groupmode="layer"
     id="layer1"
     transform="translate(2435.99,-10570.596)">
    <path
       id="rect31"
       style="fill:none;stroke-width:0.390422;stroke-linecap:round;stroke-linejoin:round;paint-order:stroke fill markers"
       d="m -2434.1091,10570.597 h 75.6132 c 1.042,0 1.8809,0.25 1.8809,0.562 v 16.867 c 0,0.312 -0.8389,0.562 -1.8809,0.562 h -75.6132 c -1.042,0 -1.8809,-0.25 -1.8809,-0.562 v -16.867 c 0,-0.312 0.8389,-0.562 1.8809,-0.562 z" />
    <g
       id="g31"
       transform="matrix(0.78882988,0,0,0.78882988,-541.81195,2182.9646)"
       inkscape:export-filename="../Novo Site/images/logo.png"
       inkscape:export-xdpi="96"
       inkscape:export-ydpi="96">
      <path
         style="font-weight:900;font-size:6.1955px;font-family:Inter;-inkscape-font-specification:'Inter Heavy';letter-spacing:0px;word-spacing:0px;fill:#ffffff;stroke-width:1.13661;stroke-linecap:round;stroke-linejoin:round;paint-order:stroke fill markers"
         d="m -2377.949,10647.036 h -1.3201 l 1.4873,-4.506 h 1.672 l 1.4873,4.506 h -1.32 l -0.2597,-0.862 h -1.4872 z m 0.5368,-1.778 h 0.9328 l -0.4488,-1.487 h -0.035 z m 4.1978,1.822 q -0.3608,0 -0.6644,-0.189 -0.3015,-0.189 -0.4841,-0.574 -0.1804,-0.385 -0.1804,-0.971 0,-0.611 0.1892,-0.994 0.1914,-0.383 0.4929,-0.561 0.3036,-0.178 0.638,-0.178 0.3762,0 0.6138,0.189 0.2376,0.187 0.3366,0.444 h 0.018 v -1.716 h 1.2145 v 4.506 h -1.2057 v -0.554 h -0.026 q -0.1056,0.257 -0.3454,0.429 -0.2398,0.169 -0.5962,0.169 z m 0.4488,-0.933 q 0.2508,0 0.3938,-0.215 0.143,-0.216 0.143,-0.586 0,-0.376 -0.143,-0.587 -0.143,-0.213 -0.3938,-0.213 -0.2508,0 -0.3894,0.213 -0.1386,0.211 -0.1386,0.587 0,0.377 0.1386,0.59 0.1386,0.211 0.3894,0.211 z m 2.3233,0.889 v -3.379 h 1.1793 v 0.642 h 0.035 q 0.092,-0.356 0.2926,-0.521 0.2024,-0.165 0.473,-0.165 0.1518,0 0.308,0.05 v 1.036 q -0.09,-0.03 -0.2222,-0.05 -0.132,-0.01 -0.2266,-0.01 -0.2684,0 -0.4466,0.176 -0.1782,0.176 -0.1782,0.466 v 1.76 z m 2.6841,0 v -3.379 h 1.2145 v 3.379 z m 0.6073,-3.731 q -0.2464,0 -0.4225,-0.163 -0.176,-0.163 -0.176,-0.392 0,-0.228 0.176,-0.391 0.1761,-0.163 0.4225,-0.163 0.2486,0 0.4224,0.163 0.176,0.163 0.176,0.391 0,0.229 -0.176,0.392 -0.1738,0.163 -0.4224,0.163 z m 2.8425,3.793 q -0.8118,0 -1.2783,-0.46 -0.4642,-0.462 -0.4642,-1.283 0,-0.523 0.2112,-0.915 0.2112,-0.392 0.5963,-0.609 0.385,-0.218 0.9086,-0.218 0.5104,0 0.8866,0.209 0.3785,0.209 0.5853,0.598 0.209,0.387 0.209,0.926 v 0.282 h -2.2001 v 0.05 q 0,0.244 0.1496,0.405 0.1518,0.158 0.4224,0.158 0.187,0 0.3256,-0.08 0.1408,-0.08 0.1936,-0.222 h 1.1089 q -0.086,0.528 -0.5192,0.84 -0.4313,0.313 -1.1353,0.313 z m -0.5456,-2.139 h 1.0824 q -0,-0.218 -0.1584,-0.354 -0.1518,-0.139 -0.3784,-0.139 -0.2222,0 -0.3828,0.137 -0.1584,0.136 -0.1628,0.356 z m 3.9074,-2.429 v 4.506 h -1.2145 v -4.506 z"
         id="text1-3-5-4-1-7-8-7-5-9-7-0-33-6-2-7-7-7-2-4-2-2"
         aria-label="Adriel" />
      <path
         style="font-weight:bold;font-size:6.1955px;font-family:Inter;-inkscape-font-specification:'Inter Bold';letter-spacing:-0.185863px;word-spacing:0px;fill:#ffffff;stroke-width:1.13661;stroke-linecap:round;stroke-linejoin:round;paint-order:stroke fill markers"
         d="m -2359.2771,10647.098 v -4.506 h 2.9834 v 0.785 h -2.0307 v 1.074 h 1.8327 v 0.785 h -1.8327 v 1.862 z m 3.4201,0 v -3.38 h 0.9373 v 3.38 z m 0.4708,-3.815 q -0.2068,0 -0.3564,-0.139 -0.1496,-0.141 -0.1496,-0.337 0,-0.195 0.1496,-0.334 0.1496,-0.139 0.3564,-0.139 0.2091,0 0.3587,0.139 0.1496,0.139 0.1496,0.334 0,0.196 -0.1496,0.337 -0.1496,0.139 -0.3587,0.139 z m 1.9659,-0.691 v 4.506 h -0.9373 v -4.506 z m 0.5622,4.506 v -3.38 h 0.9372 v 3.38 z m 0.4708,-3.815 q -0.2068,0 -0.3564,-0.139 -0.1496,-0.141 -0.1496,-0.337 0,-0.195 0.1496,-0.334 0.1496,-0.139 0.3564,-0.139 0.209,0 0.3586,0.139 0.1496,0.139 0.1496,0.334 0,0.196 -0.1496,0.337 -0.1496,0.139 -0.3586,0.139 z m 1.0286,5.082 v -4.647 h 0.924 v 0.568 h 0.042 q 0.064,-0.139 0.1804,-0.279 0.1166,-0.141 0.308,-0.236 0.1914,-0.1 0.4731,-0.1 0.3718,0 0.682,0.194 0.3102,0.191 0.4972,0.579 0.1892,0.385 0.1892,0.965 0,0.566 -0.1826,0.955 -0.1826,0.387 -0.4928,0.588 -0.3102,0.198 -0.6952,0.198 -0.2729,0 -0.4643,-0.09 -0.1892,-0.09 -0.3102,-0.226 -0.1188,-0.139 -0.1848,-0.28 h -0.029 v 1.809 z m 0.9174,-2.957 q 0,0.451 0.1848,0.726 0.187,0.273 0.5258,0.273 0.3455,0 0.5281,-0.277 0.1826,-0.28 0.1826,-0.722 0,-0.44 -0.1826,-0.713 -0.1804,-0.275 -0.5281,-0.275 -0.341,0 -0.5258,0.269 -0.1848,0.266 -0.1848,0.719 z m 4.3552,1.756 q -0.5193,0 -0.8955,-0.212 -0.3762,-0.213 -0.5786,-0.602 -0.2024,-0.392 -0.2024,-0.927 0,-0.521 0.2024,-0.915 0.2024,-0.394 0.5698,-0.614 0.3696,-0.22 0.8669,-0.22 0.4466,0 0.8052,0.189 0.3608,0.19 0.572,0.573 0.2112,0.38 0.2112,0.954 v 0.258 h -2.3013 v 0 q 0,0.378 0.2068,0.596 0.2068,0.218 0.5589,0.218 0.2354,0 0.407,-0.1 0.1716,-0.1 0.242,-0.293 l 0.8668,0.06 q -0.099,0.47 -0.5016,0.752 -0.4026,0.282 -1.0296,0.282 z m -0.7503,-2.097 h 1.4191 q -0,-0.301 -0.1936,-0.497 -0.1914,-0.196 -0.4972,-0.196 -0.3125,0 -0.5127,0.202 -0.2002,0.203 -0.2156,0.491 z"
         id="text1-9-4-7-5-2-1-6-3-4-7-5-4-60-4-8-0-6-9-7-4-9-4"
         aria-label="Filipe" />
      <path
         style="fill:#ff6600;fill-opacity:1;stroke-width:0.367404;stroke-linecap:round;stroke-linejoin:round;paint-order:stroke fill markers"
         d="m -2393.3876,10644.647 a 3.5080158,3.5080158 0 0 1 3.508,3.508 3.5080158,3.5080158 0 0 1 -3.508,3.508 3.5080158,3.5080158 0 0 1 -3.508,-3.508 3.5080158,3.5080158 0 0 1 3.508,-3.508 z"
         id="path28-4-5-1-5-0-2" />
      <path
         id="rect1-6-7-8-2-6-9-1-7-8-4-8-2-88-6-8-3-1-4-9-8-7-0"
         style="fill:#ff6600;fill-opacity:1;stroke-width:0.219938;stroke-linecap:round;stroke-linejoin:round;paint-order:stroke fill markers"
         d="m -2396.8956,10637.155 v 2.544 0 2.469 h 9.5603 v 9.444 h 2.5442 2.5442 v -14.457 0 0 z"
         inkscape:export-filename="../Novo Site/images/logo.png"
         inkscape:export-xdpi="96"
         inkscape:export-ydpi="96" />
    </g>
  </g>
</svg>
